# xmcd CD database file
#
# Track frame offsets:
#	150
#	12979
#	26948
#	44656
#	56454
#	73108
#	87361
#	104831
#	124072
#	138903
#	153790
#	168536
#
# Disc length: 2458 seconds
#
# Revision: 0
# Processed by: cddbd v1.5.2PL0 Copyright (c) Steve Scherf et al.
# Submitted via: CDex 1.79
#
DISCID=a909980c
DTITLE=Katie Grant - Christmas Is Here
DYEAR=2008
DGENRE=Country
TTITLE0=Christmas Toy
TTITLE1=Christmas Is Here
TTITLE2=Oh lieber guter Weihnachtsmann
TTITLE3=Santa's Knocking At Your Door
TTITLE4=On The Spur Of A Moment
TTITLE5=Mein Weihnachtsblues
TTITLE6=Please Say Yes This Christmas Night
TTITLE7=The Musing Game
TTITLE8=Ein anderes Licht
TTITLE9=Christmas Time Comes Along
TTITLE10=My Blue Christmas
TTITLE11=Weit voraus
EXTD=YEAR: 2008
EXTT0=
EXTT1=
EXTT2=
EXTT3=
EXTT4=
EXTT5=
EXTT6=
EXTT7=
EXTT8=
EXTT9=
EXTT10=
EXTT11=
PLAYORDER=
